<svg width="1512" height="420" viewBox="0 0 1512 420" fill="none" xmlns="http://www.w3.org/2000/svg">
<g clip-path="url(#clip0_1_3)">
<rect width="1512" height="420" fill="#F7FBFF"/>
<g opacity="0.6">
<path opacity="0.4" fill-rule="evenodd" clip-rule="evenodd" d="M680.466 -248.732H755.736V-172.582H688.264L680.466 -180.471V-248.732ZM672.46 -172.582L680.158 -180.369V-248.732H604.888V-172.582H672.46ZM680.158 -164.598L672.575 -172.27H604.888V-96.1189H680.158V-164.598ZM688.149 -172.27L680.466 -164.496V-96.1189H755.736V-172.27H688.149ZM756 -249V-172.537V-172.314V-96.0744V-95.8514V-19.6116V-19.3887V56.8513V57.0742V133.314V133.537V210H680.422H680.202H604.844H604.624H529.266H529.046H453.688H453.468H378.11H377.89H302.532H302.312H226.954H226.734H151.377H151.156H75.7986H75.5783H0.000253461L1.84193e-05 133.537V57.0742V56.8513V-19.6116V-95.8514V-172.314V-172.537V-249H75.5783H75.7983H151.156H151.377H226.734H226.954H302.312H302.532H377.89H378.11H453.468H453.688H529.046H529.266H604.624H604.844H680.202H680.422H756ZM604.58 -248.732H529.31V-172.582H604.58V-248.732ZM453.732 -248.732H529.002V-172.582H453.732V-248.732ZM453.424 -248.732H378.154V-172.582H453.424V-248.732ZM302.576 -248.732H377.846V-172.582H302.576V-248.732ZM302.268 -248.732H226.999V-172.582H302.268V-248.732ZM151.42 -248.732H226.69V-172.582H151.42V-248.732ZM151.112 -248.732H75.8427V-172.582H151.112V-248.732ZM0.264441 -248.732H75.5339V-172.582H0.264441V-248.732ZM604.58 -172.27H529.31V-96.1189H604.58V-172.27ZM453.732 -172.27H529.002V-96.1189H461.303L453.732 -103.779V-172.27ZM445.974 -96.1189L453.424 -103.656V-172.27H378.154V-96.1189H445.974ZM453.424 -87.9057L445.64 -95.7808L445.666 -95.8069H378.154V-19.6562H453.424V-87.9057ZM461.612 -95.8069L461.637 -95.7808L453.732 -87.7831V-19.6562H529.002V-95.8069H461.612ZM302.576 -172.27H377.846V-96.1189H302.576V-172.27ZM302.268 -172.27H226.999V-96.1189H302.268V-172.27ZM151.42 -172.27H226.69V-96.1189H151.42V-172.27ZM151.112 -172.27H75.8427V-117.246L75.9704 -117.116L96.7248 -96.1189H151.112V-172.27ZM97.0332 -95.8069H151.112V-27.1583L150.859 -27.414L143.191 -19.6562H75.8425V-74.3159L75.9704 -74.4454L96.8547 -95.5742L97.0589 -95.7808L97.0332 -95.8069ZM75.8425 -74.7292L96.6505 -95.7808L96.6247 -95.8069H83.7392L83.765 -95.7808L75.8425 -87.7656V-74.7292ZM75.5341 -74.4735V-19.6562H0.264676V-95.8069H54.4992L54.4734 -95.7808L54.6776 -95.5742L75.5341 -74.4735ZM54.9076 -95.8069L54.8818 -95.7808L75.5341 -74.8867V-87.923L67.7672 -95.7808L67.793 -95.8069H54.9076ZM54.8075 -96.1189H0.264441V-172.27H75.5339V-117.088L54.8075 -96.1189ZM75.5339 -116.675L55.2159 -96.1189H68.1014L75.5339 -103.638V-116.675ZM75.8427 -116.832L96.3164 -96.1189H83.4309L75.8427 -103.796V-116.832ZM151.112 -11.4849L150.859 -11.229L142.86 -19.3215L142.883 -19.3441H75.8427V56.8067H151.112V-11.4849ZM158.836 -19.3441L158.858 -19.3215L151.42 -11.7968V56.8067H226.69V-19.3441H158.836ZM151.42 -26.8462L158.527 -19.6562H226.69V-95.8069H151.42V-26.8462ZM755.736 -95.8069H680.466V-19.6562H755.736V-95.8069ZM604.888 -95.8069H680.158V-19.6562H604.888V-95.8069ZM604.58 -95.8069H529.31V-19.6562H604.58V-95.8069ZM302.576 -95.8069H377.846V-19.6562H302.576V-95.8069ZM302.268 -95.8069H226.999V-19.6562H302.268V-95.8069ZM755.736 -19.3441H680.466V56.8067H755.736V-19.3441ZM604.888 -19.3441H680.158V56.8067H625.685L625.783 56.7077L625.579 56.501L604.888 35.5677V-19.3441ZM604.888 35.981L625.375 56.7077L625.277 56.8067H612.391L612.489 56.7077L604.888 49.0174V35.981ZM604.58 48.7054V35.669L604.491 35.5788L583.606 56.7077L583.704 56.8067H596.59L596.492 56.7077L604.491 48.6151L604.58 48.7054ZM604.58 64.7099L604.491 64.8002L596.898 57.1189H584.013L604.491 77.8365L604.58 77.7463V64.7099ZM612.083 57.1189L604.888 64.3979V77.4343L624.968 57.1189H612.083ZM625.377 57.1189H680.158V133.27H604.888V77.8476L625.377 57.1189ZM604.58 78.1595V133.27H529.31V57.1189H583.604L604.286 78.0431L604.491 78.2497L604.58 78.1595ZM583.296 56.8067H529.31V-19.3441H604.58V35.2558L604.491 35.1656L604.286 35.3722L583.402 56.501L583.198 56.7077L583.296 56.8067ZM453.732 -19.3441H529.002V56.8067H453.732V-19.3441ZM453.424 -19.3441H378.154V56.8067H453.424V-19.3441ZM302.576 -19.3441H377.846V56.8067H302.576V-19.3441ZM302.268 -19.3441H226.999V56.8067H302.268V-19.3441ZM0.264441 -19.3441H75.5339V56.8067H0.264441V-19.3441ZM755.736 57.1189H680.466V133.27H755.736V57.1189ZM453.732 57.1189H529.002V133.27H453.732V57.1189ZM453.424 57.1189H378.154V133.27H453.424V57.1189ZM302.576 57.1189H377.846V133.27H302.576V57.1189ZM302.268 57.1189H226.999V133.27H302.268V57.1189ZM151.42 57.1189H226.69V133.27H151.42V57.1189ZM151.112 57.1189H75.8427V133.27H151.112V57.1189ZM0.264441 57.1189H75.5339V133.27H0.264441V57.1189ZM755.736 133.582H680.466V209.732H755.736V133.582ZM604.888 133.582H680.158V209.732H604.888V133.582ZM604.58 133.582H529.31V209.732H604.58V133.582ZM453.732 133.582H529.002V209.732H453.732V133.582ZM453.424 133.582H378.154V209.732H453.424V133.582ZM302.576 133.582H377.846V209.732H302.576V133.582ZM302.268 133.582H226.999V209.732H302.268V133.582ZM151.42 133.582H226.69V209.732H151.42V133.582ZM151.112 133.582H75.8427V209.732H151.112V133.582ZM0.264676 133.582H75.5341V209.732H0.264676V133.582Z" fill="url(#paint0_radial_1_3)" fill-opacity="0.8"/>
<path opacity="0.4" fill-rule="evenodd" clip-rule="evenodd" d="M831.534 -248.732H756.264V-172.582H823.736L831.534 -180.471V-248.732ZM839.54 -172.582L831.842 -180.369V-248.732H907.112V-172.582H839.54ZM831.842 -164.598L839.425 -172.27H907.112V-96.1189H831.842V-164.598ZM823.851 -172.27L831.534 -164.496V-96.1189H756.264V-172.27H823.851ZM756 -249V-172.537V-172.314V-96.0744V-95.8514V-19.6116V-19.3887V56.8513V57.0742V133.314V133.537V210H831.578H831.798H907.156H907.376H982.734H982.954H1058.31H1058.53H1133.89H1134.11H1209.47H1209.69H1285.05H1285.27H1360.62H1360.84H1436.2H1436.42H1512L1512 133.537V57.0742V56.8513V-19.6116V-95.8514V-172.314V-172.537V-249H1436.42H1436.2H1360.84H1360.62H1285.27H1285.05H1209.69H1209.47H1134.11H1133.89H1058.53H1058.31H982.954H982.734H907.376H907.156H831.798H831.578H756ZM907.42 -248.732H982.69V-172.582H907.42V-248.732ZM1058.27 -248.732H982.998V-172.582H1058.27V-248.732ZM1058.58 -248.732H1133.85V-172.582H1058.58V-248.732ZM1209.42 -248.732H1134.15V-172.582H1209.42V-248.732ZM1209.73 -248.732H1285V-172.582H1209.73V-248.732ZM1360.58 -248.732H1285.31V-172.582H1360.58V-248.732ZM1360.89 -248.732H1436.16V-172.582H1360.89V-248.732ZM1511.74 -248.732H1436.47V-172.582H1511.74V-248.732ZM907.42 -172.27H982.69V-96.1189H907.42V-172.27ZM1058.27 -172.27H982.998V-96.1189H1050.7L1058.27 -103.779V-172.27ZM1066.03 -96.1189L1058.58 -103.656V-172.27H1133.85V-96.1189H1066.03ZM1058.58 -87.9057L1066.36 -95.7808L1066.33 -95.8069H1133.85V-19.6562H1058.58V-87.9057ZM1050.39 -95.8069L1050.36 -95.7808L1058.27 -87.7831V-19.6562H982.998V-95.8069H1050.39ZM1209.42 -172.27H1134.15V-96.1189H1209.42V-172.27ZM1209.73 -172.27H1285V-96.1189H1209.73V-172.27ZM1360.58 -172.27H1285.31V-96.1189H1360.58V-172.27ZM1360.89 -172.27H1436.16V-117.246L1436.03 -117.116L1415.28 -96.1189H1360.89V-172.27ZM1414.97 -95.8069H1360.89V-27.1583L1361.14 -27.414L1368.81 -19.6562H1436.16V-74.3159L1436.03 -74.4454L1415.15 -95.5742L1414.94 -95.7808L1414.97 -95.8069ZM1436.16 -74.7292L1415.35 -95.7808L1415.38 -95.8069H1428.26L1428.24 -95.7808L1436.16 -87.7656V-74.7292ZM1436.47 -74.4735V-19.6562H1511.74V-95.8069H1457.5L1457.53 -95.7808L1457.32 -95.5742L1436.47 -74.4735ZM1457.09 -95.8069L1457.12 -95.7808L1436.47 -74.8867V-87.923L1444.23 -95.7808L1444.21 -95.8069H1457.09ZM1457.19 -96.1189H1511.74V-172.27H1436.47V-117.088L1457.19 -96.1189ZM1436.47 -116.675L1456.78 -96.1189H1443.9L1436.47 -103.638V-116.675ZM1436.16 -116.832L1415.68 -96.1189H1428.57L1436.16 -103.796V-116.832ZM1360.89 -11.4849L1361.14 -11.229L1369.14 -19.3215L1369.12 -19.3441H1436.16V56.8067H1360.89V-11.4849ZM1353.16 -19.3441L1353.14 -19.3215L1360.58 -11.7968V56.8067H1285.31V-19.3441H1353.16ZM1360.58 -26.8462L1353.47 -19.6562H1285.31V-95.8069H1360.58V-26.8462ZM756.264 -95.8069H831.534V-19.6562H756.264V-95.8069ZM907.112 -95.8069H831.842V-19.6562H907.112V-95.8069ZM907.42 -95.8069H982.69V-19.6562H907.42V-95.8069ZM1209.42 -95.8069H1134.15V-19.6562H1209.42V-95.8069ZM1209.73 -95.8069H1285V-19.6562H1209.73V-95.8069ZM756.264 -19.3441H831.534V56.8067H756.264V-19.3441ZM907.112 -19.3441H831.842V56.8067H886.315L886.217 56.7077L886.421 56.501L907.112 35.5677V-19.3441ZM907.112 35.981L886.625 56.7077L886.723 56.8067H899.609L899.511 56.7077L907.112 49.0174V35.981ZM907.42 48.7054V35.669L907.509 35.5788L928.394 56.7077L928.296 56.8067H915.41L915.508 56.7077L907.509 48.6151L907.42 48.7054ZM907.42 64.7099L907.509 64.8002L915.102 57.1189H927.987L907.509 77.8365L907.42 77.7463V64.7099ZM899.917 57.1189L907.112 64.3979V77.4343L887.032 57.1189H899.917ZM886.623 57.1189H831.842V133.27H907.112V77.8476L886.623 57.1189ZM907.42 78.1595V133.27H982.69V57.1189H928.396L907.714 78.0431L907.509 78.2497L907.42 78.1595ZM928.704 56.8067H982.69V-19.3441H907.42V35.2558L907.509 35.1656L907.714 35.3722L928.598 56.501L928.802 56.7077L928.704 56.8067ZM1058.27 -19.3441H982.998V56.8067H1058.27V-19.3441ZM1058.58 -19.3441H1133.85V56.8067H1058.58V-19.3441ZM1209.42 -19.3441H1134.15V56.8067H1209.42V-19.3441ZM1209.73 -19.3441H1285V56.8067H1209.73V-19.3441ZM1511.74 -19.3441H1436.47V56.8067H1511.74V-19.3441ZM756.264 57.1189H831.534V133.27H756.264V57.1189ZM1058.27 57.1189H982.998V133.27H1058.27V57.1189ZM1058.58 57.1189H1133.85V133.27H1058.58V57.1189ZM1209.42 57.1189H1134.15V133.27H1209.42V57.1189ZM1209.73 57.1189H1285V133.27H1209.73V57.1189ZM1360.58 57.1189H1285.31V133.27H1360.58V57.1189ZM1360.89 57.1189H1436.16V133.27H1360.89V57.1189ZM1511.74 57.1189H1436.47V133.27H1511.74V57.1189ZM756.264 133.582H831.534V209.732H756.264V133.582ZM907.112 133.582H831.842V209.732H907.112V133.582ZM907.42 133.582H982.69V209.732H907.42V133.582ZM1058.27 133.582H982.998V209.732H1058.27V133.582ZM1058.58 133.582H1133.85V209.732H1058.58V133.582ZM1209.42 133.582H1134.15V209.732H1209.42V133.582ZM1209.73 133.582H1285V209.732H1209.73V133.582ZM1360.58 133.582H1285.31V209.732H1360.58V133.582ZM1360.89 133.582H1436.16V209.732H1360.89V133.582ZM1511.74 133.582H1436.47V209.732H1511.74V133.582Z" fill="url(#paint1_radial_1_3)" fill-opacity="0.8"/>
<path opacity="0.4" fill-rule="evenodd" clip-rule="evenodd" d="M831.534 210.268H756.264V286.418H823.736L831.534 278.529V210.268ZM839.54 286.418L831.842 278.631V210.268H907.112V286.418H839.54ZM831.842 294.402L839.425 286.73H907.112V362.881H831.842V294.402ZM823.851 286.73L831.534 294.504V362.881H756.264V286.73H823.851ZM756 210V286.463V286.686V362.926V363.149V439.388V439.611V515.851V516.074V592.314V592.537V669H831.578H831.798H907.156H907.376H982.734H982.954H1058.31H1058.53H1133.89H1134.11H1209.47H1209.69H1285.05H1285.27H1360.62H1360.84H1436.2H1436.42H1512L1512 592.537V516.074V515.851V439.388V363.149V286.686V286.463V210H1436.42H1436.2H1360.84H1360.62H1285.27H1285.05H1209.69H1209.47H1134.11H1133.89H1058.53H1058.31H982.954H982.734H907.376H907.156H831.798H831.578H756ZM907.42 210.268H982.69V286.418H907.42V210.268ZM1058.27 210.268H982.998V286.418H1058.27V210.268ZM1058.58 210.268H1133.85V286.418H1058.58V210.268ZM1209.42 210.268H1134.15V286.418H1209.42V210.268ZM1209.73 210.268H1285V286.418H1209.73V210.268ZM1360.58 210.268H1285.31V286.418H1360.58V210.268ZM1360.89 210.268H1436.16V286.418H1360.89V210.268ZM1511.74 210.268H1436.47V286.418H1511.74V210.268ZM907.42 286.73H982.69V362.881H907.42V286.73ZM1058.27 286.73H982.998V362.881H1050.7L1058.27 355.221V286.73ZM1066.03 362.881L1058.58 355.344V286.73H1133.85V362.881H1066.03ZM1058.58 371.094L1066.36 363.219L1066.33 363.193H1133.85V439.344H1058.58V371.094ZM1050.39 363.193L1050.36 363.219L1058.27 371.217V439.344H982.998V363.193H1050.39ZM1209.42 286.73H1134.15V362.881H1209.42V286.73ZM1209.73 286.73H1285V362.881H1209.73V286.73ZM1360.58 286.73H1285.31V362.881H1360.58V286.73ZM1360.89 286.73H1436.16V341.754L1436.03 341.884L1415.28 362.881H1360.89V286.73ZM1414.97 363.193H1360.89V431.842L1361.14 431.586L1368.81 439.344H1436.16V384.684L1436.03 384.555L1415.15 363.426L1414.94 363.219L1414.97 363.193ZM1436.16 384.271L1415.35 363.219L1415.38 363.193H1428.26L1428.24 363.219L1436.16 371.234V384.271ZM1436.47 384.527V439.344H1511.74V363.193H1457.5L1457.53 363.219L1457.32 363.426L1436.47 384.527ZM1457.09 363.193L1457.12 363.219L1436.47 384.113V371.077L1444.23 363.219L1444.21 363.193H1457.09ZM1457.19 362.881H1511.74V286.73H1436.47V341.912L1457.19 362.881ZM1436.47 342.325L1456.78 362.881H1443.9L1436.47 355.362V342.325ZM1436.16 342.168L1415.68 362.881H1428.57L1436.16 355.204V342.168ZM1360.89 447.515L1361.14 447.771L1369.14 439.678L1369.12 439.656H1436.16V515.807H1360.89V447.515ZM1353.16 439.656L1353.14 439.678L1360.58 447.203V515.807H1285.31V439.656H1353.16ZM1360.58 432.154L1353.47 439.344H1285.31V363.193H1360.58V432.154ZM756.264 363.193H831.534V439.344H756.264V363.193ZM907.112 363.193H831.842V439.344H907.112V363.193ZM907.42 363.193H982.69V439.344H907.42V363.193ZM1209.42 363.193H1134.15V439.344H1209.42V363.193ZM1209.73 363.193H1285V439.344H1209.73V363.193ZM756.264 439.656H831.534V515.807H756.264V439.656ZM907.112 439.656H831.842V515.807H886.315L886.217 515.708L886.421 515.501L907.112 494.568V439.656ZM907.112 494.981L886.625 515.708L886.723 515.807H899.609L899.511 515.708L907.112 508.017V494.981ZM907.42 507.705V494.669L907.509 494.579L928.394 515.708L928.296 515.807H915.41L915.508 515.708L907.509 507.615L907.42 507.705ZM907.42 523.71L907.509 523.8L915.102 516.119H927.987L907.509 536.837L907.42 536.746V523.71ZM899.917 516.119L907.112 523.398V536.434L887.032 516.119H899.917ZM886.623 516.119H831.842V592.27H907.112V536.848L886.623 516.119ZM907.42 537.159V592.27H982.69V516.119H928.396L907.714 537.043L907.509 537.25L907.42 537.159ZM928.704 515.807H982.69V439.656H907.42V494.256L907.509 494.166L907.714 494.372L928.598 515.501L928.802 515.708L928.704 515.807ZM1058.27 439.656H982.998V515.807H1058.27V439.656ZM1058.58 439.656H1133.85V515.807H1058.58V439.656ZM1209.42 439.656H1134.15V515.807H1209.42V439.656ZM1209.73 439.656H1285V515.807H1209.73V439.656ZM1511.74 439.656H1436.47V515.807H1511.74V439.656ZM756.264 516.119H831.534V592.27H756.264V516.119ZM1058.27 516.119H982.998V592.27H1058.27V516.119ZM1058.58 516.119H1133.85V592.27H1058.58V516.119ZM1209.42 516.119H1134.15V592.27H1209.42V516.119ZM1209.73 516.119H1285V592.27H1209.73V516.119ZM1360.58 516.119H1285.31V592.27H1360.58V516.119ZM1360.89 516.119H1436.16V592.27H1360.89V516.119ZM1511.74 516.119H1436.47V592.27H1511.74V516.119ZM756.264 592.582H831.534V668.732H756.264V592.582ZM907.112 592.582H831.842V668.732H907.112V592.582ZM907.42 592.582H982.69V668.732H907.42V592.582ZM1058.27 592.582H982.998V668.732H1058.27V592.582ZM1058.58 592.582H1133.85V668.732H1058.58V592.582ZM1209.42 592.582H1134.15V668.732H1209.42V592.582ZM1209.73 592.582H1285V668.732H1209.73V592.582ZM1360.58 592.582H1285.31V668.732H1360.58V592.582ZM1360.89 592.582H1436.16V668.732H1360.89V592.582ZM1511.74 592.582H1436.47V668.732H1511.74V592.582Z" fill="url(#paint2_radial_1_3)" fill-opacity="0.8"/>
<path opacity="0.4" fill-rule="evenodd" clip-rule="evenodd" d="M75.5339 210.268H0.264413V286.418H67.7359L75.5339 278.529V210.268ZM83.5398 286.418L75.8424 278.631V210.268H151.112V286.418H83.5398ZM75.8424 294.402L83.4251 286.73H151.112V362.881H75.8424V294.402ZM67.8506 286.73L75.5339 294.504V362.881H0.264413V286.73H67.8506ZM0 210V286.463V286.686V362.926V363.149V439.388V439.611V515.851V516.074V592.314V592.537V669H75.578H75.7983H151.156H151.376H226.734H226.954H302.312H302.532H377.89H378.11H453.468H453.688H529.046H529.266H604.623H604.844H680.201H680.422H756L756 592.537V516.074V515.851V439.388V363.149V286.686V286.463V210H680.422H680.202H604.844H604.623H529.266H529.046H453.688H453.468H378.11H377.89H302.532H302.312H226.954H226.734H151.376H151.156H75.7983H75.578H0ZM151.42 210.268H226.69V286.418H151.42V210.268ZM302.268 210.268H226.998V286.418H302.268V210.268ZM302.576 210.268H377.846V286.418H302.576V210.268ZM453.424 210.268H378.154V286.418H453.424V210.268ZM453.732 210.268H529.001V286.418H453.732V210.268ZM604.58 210.268H529.31V286.418H604.58V210.268ZM604.888 210.268H680.157V286.418H604.888V210.268ZM755.736 210.268H680.466V286.418H755.736V210.268ZM151.42 286.73H226.69V362.881H151.42V286.73ZM302.268 286.73H226.998V362.881H294.697L302.268 355.221V286.73ZM310.026 362.881L302.576 355.344V286.73H377.846V362.881H310.026ZM302.576 371.094L310.36 363.219L310.334 363.193H377.846V439.344H302.576V371.094ZM294.388 363.193L294.363 363.219L302.268 371.217V439.344H226.998V363.193H294.388ZM453.424 286.73H378.154V362.881H453.424V286.73ZM453.732 286.73H529.001V362.881H453.732V286.73ZM604.58 286.73H529.31V362.881H604.58V286.73ZM604.888 286.73H680.157V341.754L680.03 341.884L659.275 362.881H604.888V286.73ZM658.967 363.193H604.888V431.842L605.141 431.586L612.809 439.344H680.158V384.684L680.03 384.555L659.145 363.426L658.941 363.219L658.967 363.193ZM680.158 384.271L659.349 363.219L659.375 363.193H672.261L672.235 363.219L680.158 371.234V384.271ZM680.466 384.527V439.344H755.735V363.193H701.501L701.527 363.219L701.322 363.426L680.466 384.527ZM701.092 363.193L701.118 363.219L680.466 384.113V371.077L688.233 363.219L688.207 363.193H701.092ZM701.193 362.881H755.736V286.73H680.466V341.912L701.193 362.881ZM680.466 342.325L700.784 362.881H687.899L680.466 355.362V342.325ZM680.157 342.168L659.684 362.881H672.569L680.157 355.204V342.168ZM604.888 447.515L605.141 447.771L613.14 439.678L613.117 439.656H680.157V515.807H604.888V447.515ZM597.164 439.656L597.142 439.678L604.58 447.203V515.807H529.31V439.656H597.164ZM604.58 432.154L597.473 439.344H529.31V363.193H604.58V432.154ZM0.264413 363.193H75.5339V439.344H0.264413V363.193ZM151.112 363.193H75.8424V439.344H151.112V363.193ZM151.42 363.193H226.69V439.344H151.42V363.193ZM453.424 363.193H378.154V439.344H453.424V363.193ZM453.732 363.193H529.001V439.344H453.732V363.193ZM0.264413 439.656H75.5339V515.807H0.264413V439.656ZM151.112 439.656H75.8424V515.807H130.315L130.217 515.708L130.421 515.501L151.112 494.568V439.656ZM151.112 494.981L130.625 515.708L130.723 515.807H143.609L143.511 515.708L151.112 508.017V494.981ZM151.42 507.705V494.669L151.509 494.579L172.394 515.708L172.296 515.807H159.41L159.508 515.708L151.509 507.615L151.42 507.705ZM151.42 523.71L151.509 523.8L159.102 516.119H171.987L151.509 536.837L151.42 536.746V523.71ZM143.917 516.119L151.112 523.398V536.434L131.032 516.119H143.917ZM130.623 516.119H75.8424V592.27H151.112V536.848L130.623 516.119ZM151.42 537.159V592.27H226.69V516.119H172.396L151.714 537.043L151.509 537.25L151.42 537.159ZM172.704 515.807H226.69V439.656H151.42V494.256L151.509 494.166L151.714 494.372L172.598 515.501L172.802 515.708L172.704 515.807ZM302.268 439.656H226.998V515.807H302.268V439.656ZM302.576 439.656H377.846V515.807H302.576V439.656ZM453.424 439.656H378.154V515.807H453.424V439.656ZM453.732 439.656H529.001V515.807H453.732V439.656ZM755.736 439.656H680.466V515.807H755.736V439.656ZM0.264413 516.119H75.5339V592.27H0.264413V516.119ZM302.268 516.119H226.998V592.27H302.268V516.119ZM302.576 516.119H377.846V592.27H302.576V516.119ZM453.424 516.119H378.154V592.27H453.424V516.119ZM453.732 516.119H529.001V592.27H453.732V516.119ZM604.58 516.119H529.31V592.27H604.58V516.119ZM604.888 516.119H680.157V592.27H604.888V516.119ZM755.736 516.119H680.466V592.27H755.736V516.119ZM0.264413 592.582H75.5339V668.732H0.264413V592.582ZM151.112 592.582H75.8424V668.732H151.112V592.582ZM151.42 592.582H226.69V668.732H151.42V592.582ZM302.268 592.582H226.998V668.732H302.268V592.582ZM302.576 592.582H377.846V668.732H302.576V592.582ZM453.424 592.582H378.154V668.732H453.424V592.582ZM453.732 592.582H529.001V668.732H453.732V592.582ZM604.58 592.582H529.31V668.732H604.58V592.582ZM604.888 592.582H680.157V668.732H604.888V592.582ZM755.735 592.582H680.466V668.732H755.735V592.582Z" fill="url(#paint3_radial_1_3)" fill-opacity="0.8"/>
</g>
<g opacity="0.6" filter="url(#filter0_f_1_3)">
<circle cx="1447.5" cy="371.5" r="213.5" fill="#0C66E4"/>
</g>
<g opacity="0.6" filter="url(#filter1_f_1_3)">
<circle cx="50" cy="365" r="249" fill="#6DAAFF"/>
</g>
</g>
<defs>
<filter id="filter0_f_1_3" x="834" y="-242" width="1227" height="1227" filterUnits="userSpaceOnUse" color-interpolation-filters="sRGB">
<feFlood flood-opacity="0" result="BackgroundImageFix"/>
<feBlend mode="normal" in="SourceGraphic" in2="BackgroundImageFix" result="shape"/>
<feGaussianBlur stdDeviation="200" result="effect1_foregroundBlur_1_3"/>
</filter>
<filter id="filter1_f_1_3" x="-599" y="-284" width="1298" height="1298" filterUnits="userSpaceOnUse" color-interpolation-filters="sRGB">
<feFlood flood-opacity="0" result="BackgroundImageFix"/>
<feBlend mode="normal" in="SourceGraphic" in2="BackgroundImageFix" result="shape"/>
<feGaussianBlur stdDeviation="200" result="effect1_foregroundBlur_1_3"/>
</filter>
<radialGradient id="paint0_radial_1_3" cx="0" cy="0" r="1" gradientUnits="userSpaceOnUse" gradientTransform="translate(378 -506.624) rotate(90) scale(658.792 1085.07)">
<stop stop-color="#172B4D"/>
<stop offset="1" stop-color="#172B4D" stop-opacity="0.67"/>
</radialGradient>
<radialGradient id="paint1_radial_1_3" cx="0" cy="0" r="1" gradientUnits="userSpaceOnUse" gradientTransform="translate(1134 -506.624) rotate(90) scale(658.792 1085.07)">
<stop stop-color="#172B4D"/>
<stop offset="1" stop-color="#172B4D" stop-opacity="0.67"/>
</radialGradient>
<radialGradient id="paint2_radial_1_3" cx="0" cy="0" r="1" gradientUnits="userSpaceOnUse" gradientTransform="translate(1134 -47.6241) rotate(90) scale(658.792 1085.07)">
<stop stop-color="#172B4D"/>
<stop offset="1" stop-color="#172B4D" stop-opacity="0.67"/>
</radialGradient>
<radialGradient id="paint3_radial_1_3" cx="0" cy="0" r="1" gradientUnits="userSpaceOnUse" gradientTransform="translate(378 -47.6241) rotate(90) scale(658.792 1085.07)">
<stop stop-color="#172B4D"/>
<stop offset="1" stop-color="#172B4D" stop-opacity="0.67"/>
</radialGradient>
<clipPath id="clip0_1_3">
<rect width="1512" height="420" fill="white"/>
</clipPath>
</defs>
</svg>
